<svg width="54" height="54" viewBox="0 0 54 54" fill="none" xmlns="http://www.w3.org/2000/svg">
<g clip-path="url(#clip0_671_2123)">
<path d="M26.9009 53.7593C41.6545 53.7593 53.6116 41.8022 53.6116 27.0486C53.6116 12.295 41.6545 0.337891 26.9009 0.337891C12.1473 0.337891 0.09375 12.295 0.09375 27.0486C0.09375 41.8022 12.1473 53.7593 26.9009 53.7593Z" fill="black"/>
<path d="M15.519 31.8694H9.92612L8.67254 35.9194H4.42969L10.6011 18.0801H15.1333L21.3047 35.9194H16.7725L15.519 31.8694ZM12.7225 22.8051L10.3118 30.5194H15.1333L12.7225 22.8051Z" fill="white"/>
<path d="M22.1797 35.9194V34.8587H24.6868V19.1408H22.1797V18.0801H31.5333V19.1408H29.1225V34.8587H31.5333V35.9194H22.1797Z" fill="white"/>
<path d="M43.5815 31.8694H37.9886L36.735 35.9194H32.4922L38.6636 18.0801H43.2922L49.4636 35.9194H44.9315L43.5815 31.8694ZM40.785 22.8051L38.3743 30.5194H43.1958L40.785 22.8051Z" fill="white"/>
</g>
<defs>
<clipPath id="clip0_671_2123">
<rect width="54" height="54" fill="white"/>
</clipPath>
</defs>
</svg>
