<svg width="200" height="80" viewBox="0 0 200 80" fill="none" xmlns="http://www.w3.org/2000/svg">
<path fill-rule="evenodd" clip-rule="evenodd" d="M0 80.0006V0.000651163H15.6171V80.0006H0ZM32.9842 80.0006V0.000651163H48.6041V80.0006H32.9842ZM81.5882 13.9327V66.0692H93.4987C98.7792 66.0692 102.598 64.3819 105.183 61.1236C108.105 57.6402 108.442 52.6974 108.442 40C108.442 27.4161 108.105 22.3598 105.183 18.8764C102.598 15.6181 98.7792 13.9327 93.4987 13.9327H81.5882ZM94.8475 0C105.746 0 113.499 4.04521 119.005 11.6854C123.949 18.5406 124.061 26.7408 124.061 40C124.061 53.2592 123.949 61.4613 119.005 68.3146C113.499 75.9557 105.746 80 94.8475 80H65.9701V0H94.8475ZM153.881 52.6979H173.542L163.768 23.7077L153.881 52.6979ZM199.05 80.0008H182.645L177.925 65.8438H149.611L144.778 80.0008H128.374L157.588 0.000837209H169.835L199.05 80.0008Z" fill="#111111"></path>
</svg>
